<mxfile host="65bd71144e">
    <diagram name="Page-1" id="13e1069c-82ec-6db2-03f1-153e76fe0fe0">
        <mxGraphModel dx="883" dy="617" grid="1" gridSize="10" guides="1" tooltips="1" connect="1" arrows="1" fold="1" page="1" pageScale="1" pageWidth="1100" pageHeight="850" background="none" math="0" shadow="0">
            <root>
                <mxCell id="0"/>
                <mxCell id="1" parent="0"/>
                <mxCell id="7baba1c4bc27f4b0-2" value="&amp;nbsp;Communication&lt;br&gt;Server" style="shape=umlLifeline;perimeter=lifelinePerimeter;whiteSpace=wrap;html=1;container=1;collapsible=0;recursiveResize=0;outlineConnect=0;rounded=1;shadow=0;comic=0;labelBackgroundColor=none;strokeWidth=1;fontFamily=Verdana;fontSize=12;align=center;" parent="1" vertex="1">
                    <mxGeometry x="240" y="80" width="100" height="580" as="geometry"/>
                </mxCell>
                <mxCell id="7baba1c4bc27f4b0-10" value="" style="html=1;points=[];perimeter=orthogonalPerimeter;rounded=0;shadow=0;comic=0;labelBackgroundColor=none;strokeWidth=1;fontFamily=Verdana;fontSize=12;align=center;" parent="7baba1c4bc27f4b0-2" vertex="1">
                    <mxGeometry x="45" y="100" width="10" height="100" as="geometry"/>
                </mxCell>
                <mxCell id="2" value="ID Bot" style="html=1;verticalAlign=bottom;endArrow=open;dashed=1;endSize=8;labelBackgroundColor=none;fontFamily=Verdana;fontSize=12;edgeStyle=elbowEdgeStyle;elbow=vertical;" parent="7baba1c4bc27f4b0-2" edge="1">
                    <mxGeometry relative="1" as="geometry">
                        <mxPoint x="55" y="150" as="targetPoint"/>
                        <Array as="points">
                            <mxPoint x="130" y="150"/>
                            <mxPoint x="160" y="150"/>
                        </Array>
                        <mxPoint x="185" y="150" as="sourcePoint"/>
                    </mxGeometry>
                </mxCell>
                <mxCell id="15" value="MQTT Message&lt;br&gt;with connexion ID" style="edgeStyle=orthogonalEdgeStyle;html=1;entryX=1.001;entryY=0.77;entryDx=0;entryDy=0;entryPerimeter=0;" parent="7baba1c4bc27f4b0-2" source="4" target="8" edge="1">
                    <mxGeometry x="0.094" relative="1" as="geometry">
                        <Array as="points">
                            <mxPoint x="100" y="250"/>
                            <mxPoint x="100" y="310"/>
                            <mxPoint x="55" y="310"/>
                        </Array>
                        <mxPoint as="offset"/>
                    </mxGeometry>
                </mxCell>
                <mxCell id="17" value="STOMP Message&lt;br&gt;with connexion id" style="edgeStyle=orthogonalEdgeStyle;html=1;" parent="7baba1c4bc27f4b0-2" source="4" target="16" edge="1">
                    <mxGeometry x="-0.0141" y="20" relative="1" as="geometry">
                        <Array as="points">
                            <mxPoint x="180" y="240"/>
                            <mxPoint x="180" y="345"/>
                        </Array>
                        <mxPoint as="offset"/>
                    </mxGeometry>
                </mxCell>
                <mxCell id="4" value="" style="html=1;points=[];perimeter=orthogonalPerimeter;rounded=0;shadow=0;comic=0;labelBackgroundColor=none;strokeWidth=1;fontFamily=Verdana;fontSize=12;align=center;" parent="7baba1c4bc27f4b0-2" vertex="1">
                    <mxGeometry x="45" y="210" width="10" height="60" as="geometry"/>
                </mxCell>
                <mxCell id="6" value="Check Connexion&lt;br&gt;ID Bot" style="html=1;verticalAlign=bottom;endArrow=block;entryX=0;entryY=0;labelBackgroundColor=none;fontFamily=Verdana;fontSize=12;edgeStyle=elbowEdgeStyle;elbow=vertical;" parent="7baba1c4bc27f4b0-2" edge="1">
                    <mxGeometry relative="1" as="geometry">
                        <mxPoint x="-85" y="230" as="sourcePoint"/>
                        <mxPoint x="45" y="230" as="targetPoint"/>
                    </mxGeometry>
                </mxCell>
                <mxCell id="8" value="" style="html=1;points=[];perimeter=orthogonalPerimeter;rounded=0;shadow=0;comic=0;labelBackgroundColor=none;strokeWidth=1;fontFamily=Verdana;fontSize=12;align=center;" parent="7baba1c4bc27f4b0-2" vertex="1">
                    <mxGeometry x="45" y="300" width="10" height="20" as="geometry"/>
                </mxCell>
                <mxCell id="16" value="" style="html=1;points=[];perimeter=orthogonalPerimeter;rounded=0;shadow=0;comic=0;labelBackgroundColor=none;strokeWidth=1;fontFamily=Verdana;fontSize=12;align=center;" parent="7baba1c4bc27f4b0-2" vertex="1">
                    <mxGeometry x="45" y="335" width="10" height="20" as="geometry"/>
                </mxCell>
                <mxCell id="22" value="" style="html=1;points=[];perimeter=orthogonalPerimeter;rounded=0;shadow=0;comic=0;labelBackgroundColor=none;strokeWidth=1;fontFamily=Verdana;fontSize=12;align=center;" parent="7baba1c4bc27f4b0-2" vertex="1">
                    <mxGeometry x="45" y="434" width="10" height="36" as="geometry"/>
                </mxCell>
                <mxCell id="7baba1c4bc27f4b0-3" value="Game Manager" style="shape=umlLifeline;perimeter=lifelinePerimeter;whiteSpace=wrap;html=1;container=1;collapsible=0;recursiveResize=0;outlineConnect=0;rounded=1;shadow=0;comic=0;labelBackgroundColor=none;strokeWidth=1;fontFamily=Verdana;fontSize=12;align=center;" parent="1" vertex="1">
                    <mxGeometry x="400" y="80" width="100" height="580" as="geometry"/>
                </mxCell>
                <mxCell id="7baba1c4bc27f4b0-13" value="" style="html=1;points=[];perimeter=orthogonalPerimeter;rounded=0;shadow=0;comic=0;labelBackgroundColor=none;strokeWidth=1;fontFamily=Verdana;fontSize=12;align=center;" parent="7baba1c4bc27f4b0-3" vertex="1">
                    <mxGeometry x="45" y="120" width="10" height="40" as="geometry"/>
                </mxCell>
                <mxCell id="27" value="" style="html=1;points=[];perimeter=orthogonalPerimeter;rounded=0;shadow=0;comic=0;labelBackgroundColor=none;strokeWidth=1;fontFamily=Verdana;fontSize=12;align=center;" parent="7baba1c4bc27f4b0-3" vertex="1">
                    <mxGeometry x="46" y="440" width="10" height="40" as="geometry"/>
                </mxCell>
                <mxCell id="7baba1c4bc27f4b0-8" value="Client" style="shape=umlLifeline;perimeter=lifelinePerimeter;whiteSpace=wrap;html=1;container=1;collapsible=0;recursiveResize=0;outlineConnect=0;rounded=1;shadow=0;comic=0;labelBackgroundColor=none;strokeWidth=1;fontFamily=Verdana;fontSize=12;align=center;" parent="1" vertex="1">
                    <mxGeometry x="100" y="80" width="100" height="580" as="geometry"/>
                </mxCell>
                <mxCell id="7baba1c4bc27f4b0-9" value="" style="html=1;points=[];perimeter=orthogonalPerimeter;rounded=0;shadow=0;comic=0;labelBackgroundColor=none;strokeWidth=1;fontFamily=Verdana;fontSize=12;align=center;" parent="7baba1c4bc27f4b0-8" vertex="1">
                    <mxGeometry x="45" y="100" width="10" height="440" as="geometry"/>
                </mxCell>
                <mxCell id="3" value="ID Bot" style="html=1;verticalAlign=bottom;endArrow=open;dashed=1;endSize=8;labelBackgroundColor=none;fontFamily=Verdana;fontSize=12;edgeStyle=elbowEdgeStyle;elbow=vertical;" parent="7baba1c4bc27f4b0-8" edge="1">
                    <mxGeometry relative="1" as="geometry">
                        <mxPoint x="55" y="189" as="targetPoint"/>
                        <Array as="points">
                            <mxPoint x="130" y="189"/>
                            <mxPoint x="160" y="189"/>
                        </Array>
                        <mxPoint x="185" y="189" as="sourcePoint"/>
                    </mxGeometry>
                </mxCell>
                <mxCell id="7" value="ID Demande" style="html=1;verticalAlign=bottom;endArrow=open;dashed=1;endSize=8;labelBackgroundColor=none;fontFamily=Verdana;fontSize=12;edgeStyle=elbowEdgeStyle;elbow=vertical;" parent="7baba1c4bc27f4b0-8" edge="1">
                    <mxGeometry relative="1" as="geometry">
                        <mxPoint x="60" y="260" as="targetPoint"/>
                        <Array as="points">
                            <mxPoint x="135" y="260"/>
                            <mxPoint x="165" y="260"/>
                        </Array>
                        <mxPoint x="180" y="260" as="sourcePoint"/>
                    </mxGeometry>
                </mxCell>
                <mxCell id="18" value="Get&amp;nbsp; MQTT connexion" style="endArrow=classic;html=1;" parent="7baba1c4bc27f4b0-8" edge="1">
                    <mxGeometry x="-0.0167" y="-10" width="50" height="50" relative="1" as="geometry">
                        <mxPoint x="179" y="310" as="sourcePoint"/>
                        <mxPoint x="59" y="310" as="targetPoint"/>
                        <Array as="points">
                            <mxPoint x="139" y="310"/>
                        </Array>
                        <mxPoint as="offset"/>
                    </mxGeometry>
                </mxCell>
                <mxCell id="7baba1c4bc27f4b0-11" value="Inscription&lt;br&gt;(équipe)" style="html=1;verticalAlign=bottom;endArrow=block;entryX=0;entryY=0;labelBackgroundColor=none;fontFamily=Verdana;fontSize=12;edgeStyle=elbowEdgeStyle;elbow=vertical;" parent="1" source="7baba1c4bc27f4b0-9" target="7baba1c4bc27f4b0-10" edge="1">
                    <mxGeometry relative="1" as="geometry">
                        <mxPoint x="220" y="190" as="sourcePoint"/>
                    </mxGeometry>
                </mxCell>
                <mxCell id="7baba1c4bc27f4b0-14" value="Inscription&lt;br&gt;(équipe)" style="html=1;verticalAlign=bottom;endArrow=block;entryX=0;entryY=0;labelBackgroundColor=none;fontFamily=Verdana;fontSize=12;edgeStyle=elbowEdgeStyle;elbow=vertical;" parent="1" source="7baba1c4bc27f4b0-10" target="7baba1c4bc27f4b0-13" edge="1">
                    <mxGeometry relative="1" as="geometry">
                        <mxPoint x="370" y="200" as="sourcePoint"/>
                    </mxGeometry>
                </mxCell>
                <mxCell id="19" value="Get&amp;nbsp; STOMP connexion" style="endArrow=classic;html=1;exitX=0.167;exitY=0.476;exitDx=0;exitDy=0;exitPerimeter=0;" parent="1" source="16" target="7baba1c4bc27f4b0-9" edge="1">
                    <mxGeometry x="0.0127" y="-15" width="50" height="50" relative="1" as="geometry">
                        <mxPoint x="290" y="400" as="sourcePoint"/>
                        <mxPoint x="170" y="400" as="targetPoint"/>
                        <Array as="points">
                            <mxPoint x="240" y="425"/>
                        </Array>
                        <mxPoint as="offset"/>
                    </mxGeometry>
                </mxCell>
                <mxCell id="21" value="Check Communication&lt;br&gt;ID MQTT&lt;br&gt;ID STOMP&lt;br&gt;ID Demande" style="html=1;verticalAlign=bottom;endArrow=block;labelBackgroundColor=none;fontFamily=Verdana;fontSize=12;edgeStyle=elbowEdgeStyle;elbow=vertical;entryX=0.5;entryY=0.167;entryDx=0;entryDy=0;entryPerimeter=0;" parent="1" target="22" edge="1">
                    <mxGeometry relative="1" as="geometry">
                        <mxPoint x="160" y="520" as="sourcePoint"/>
                        <mxPoint x="280" y="520" as="targetPoint"/>
                    </mxGeometry>
                </mxCell>
                <mxCell id="24" value="Validate Communication" style="text;html=1;strokeColor=none;fillColor=none;align=center;verticalAlign=middle;whiteSpace=wrap;rounded=0;" parent="1" vertex="1">
                    <mxGeometry x="310" y="500" width="60" height="30" as="geometry"/>
                </mxCell>
                <mxCell id="25" value="OK/KO" style="html=1;verticalAlign=bottom;endArrow=open;dashed=1;endSize=8;labelBackgroundColor=none;fontFamily=Verdana;fontSize=12;edgeStyle=elbowEdgeStyle;elbow=vertical;" parent="1" edge="1">
                    <mxGeometry relative="1" as="geometry">
                        <mxPoint x="160" y="549" as="targetPoint"/>
                        <Array as="points">
                            <mxPoint x="235" y="549"/>
                            <mxPoint x="265" y="549"/>
                        </Array>
                        <mxPoint x="280" y="549" as="sourcePoint"/>
                    </mxGeometry>
                </mxCell>
                <mxCell id="26" value="Bot Enrollment&lt;br&gt;ID Bot" style="html=1;verticalAlign=bottom;endArrow=block;labelBackgroundColor=none;fontFamily=Verdana;fontSize=12;edgeStyle=elbowEdgeStyle;elbow=vertical;" parent="1" edge="1">
                    <mxGeometry x="-0.077" y="-40" relative="1" as="geometry">
                        <mxPoint x="300" y="540" as="sourcePoint"/>
                        <mxPoint x="440" y="540" as="targetPoint"/>
                        <mxPoint as="offset"/>
                    </mxGeometry>
                </mxCell>
            </root>
        </mxGraphModel>
    </diagram>
</mxfile>